<?xml version="1.0" standalone="no"?><!DOCTYPE svg PUBLIC "-//W3C//DTD SVG 1.1//EN" "http://www.w3.org/Graphics/SVG/1.1/DTD/svg11.dtd"><svg class="icon" width="200px" height="200.00px" viewBox="0 0 1024 1024" version="1.1" xmlns="http://www.w3.org/2000/svg"><path d="M73.142857 0h877.714286v877.714286H73.142857z" fill="#FFFFFF" /><path d="M694.857143 100.571429a27.428571 27.428571 0 0 1 23.277714 12.928l1.261714 2.249142 70.034286 140.233143L868.571429 256v54.857143l-51.730286-0.018286 48.694857 97.462857a27.428571 27.428571 0 0 1 2.761143 9.709715l0.128 2.56 0.146286 256v73.142857a27.428571 27.428571 0 0 1-24.795429 27.300571L841.142857 777.142857h-146.285714a27.428571 27.428571 0 0 1-27.300572-24.795428L667.428571 749.714286l-0.018285-45.714286h-310.857143L356.571429 749.714286a27.428571 27.428571 0 0 1-22.217143 26.934857l-2.56 0.365714L329.142857 777.142857H182.857143a27.428571 27.428571 0 0 1-27.300572-24.795428L155.428571 749.714286V420.571429c0-3.401143 0.64-6.765714 1.865143-9.929143l1.024-2.340572L207.049143 310.857143 155.428571 310.857143v-54.857143l79.049143-0.018286 70.125715-140.251428a27.428571 27.428571 0 0 1 21.961142-15.030857L329.142857 100.571429h365.714286zM411.428571 329.142857h-54.857142v63.981714L292.571429 393.142857v54.857143l64-0.018286V512h54.857142v-64.018286l64 0.018286v-54.857143l-64-0.018286V329.142857zM731.428571 393.142857H548.571429v54.857143h182.857142v-54.857143z" fill="#111111" /></svg>