<?xml version="1.0" standalone="no"?><!DOCTYPE svg PUBLIC "-//W3C//DTD SVG 1.1//EN" "http://www.w3.org/Graphics/SVG/1.1/DTD/svg11.dtd"><svg class="icon" width="200px" height="200.00px" viewBox="0 0 1024 1024" version="1.1" xmlns="http://www.w3.org/2000/svg"><path d="M0 0h1024v1024H0z" fill="#FFFFFF" /><path d="M768 224a32 32 0 0 1 32 32v554.666667a32 32 0 0 1-32 32H476.842667l-163.861334 81.962666a32 32 0 0 1-46.186666-25.813333L266.666667 896v-53.333333H128a32 32 0 0 1-31.850667-28.928L96 810.666667V256A32 32 0 0 1 128 224zM480 661.333333h-64v64h64v-64zM448 352a117.333333 117.333333 0 0 0-117.333333 117.333333h64l0.106666-3.498666A53.333333 53.333333 0 1 1 448 522.666667l-3.072 0.149333A32 32 0 0 0 416 554.666667v71.104h64v-43.52l4.224-1.28A117.333333 117.333333 0 0 0 448 352z" fill="#111111" /><path d="M917.333333 74.666667a32 32 0 0 1 31.850667 28.928L949.333333 106.666667v448a32 32 0 0 1-28.928 31.850666L917.333333 586.666667h-60.181333V228.16a64.106667 64.106667 0 0 0-64-64.042667L373.333333 163.882667h-64V106.666667a32 32 0 0 1 28.928-31.850667L341.333333 74.666667h576z" fill="#111111" /></svg>